<svg width="136" height="136" viewBox="0 0 136 136" fill="none" xmlns="http://www.w3.org/2000/svg">
<g clip-path="url(#clip0_1233_2783)">
<path d="M116.083 116.083C142.638 89.5276 142.638 46.4724 116.083 19.9167C89.5271 -6.63891 46.4719 -6.63891 19.9163 19.9167C-6.63938 46.4724 -6.63938 89.5276 19.9163 116.083C46.4719 142.639 89.5271 142.639 116.083 116.083Z" fill="#F3F5F6"/>
<path d="M68.2478 122.429L18.2754 92.6697V72.4563L68.2478 102.215V122.429Z" fill="#0F1E2E"/>
<path d="M118.22 92.6697L68.248 122.429V102.215L118.22 72.4563V92.6697Z" fill="#7CBC9E"/>
<path d="M68.2351 14.0149L18.2627 43.7739V63.9873L68.2351 34.2283V14.0149Z" fill="#46586C"/>
<path d="M118.207 43.7739L68.2349 14.0149V34.2283L118.207 63.9873V43.7739Z" fill="#A3B2BE"/>
<path d="M68.2478 93.7919L18.2754 64.033V43.8196L68.2478 73.5785V93.7919Z" fill="#0F1E2E"/>
<path d="M118.22 64.033L68.248 93.7919V73.5785L118.22 43.8196V64.033Z" fill="#7CBC9E"/>
</g>
<defs>
<clipPath id="clip0_1233_2783">
<rect width="136" height="136" fill="white"/>
</clipPath>
</defs>
</svg>
