<svg width="358" height="136" viewBox="0 0 358 136" fill="none" xmlns="http://www.w3.org/2000/svg">
<g clip-path="url(#clip0_1233_2795)">
<path d="M116.083 116.083C142.638 89.5276 142.638 46.4724 116.083 19.9167C89.5271 -6.63891 46.4719 -6.63891 19.9163 19.9167C-6.63938 46.4724 -6.63938 89.5276 19.9163 116.083C46.4719 142.639 89.5271 142.639 116.083 116.083Z" fill="#F3F5F6"/>
<path d="M68.2478 122.429L18.2754 92.6697V72.4563L68.2478 102.215V122.429Z" fill="#0F1E2E"/>
<path d="M118.22 92.6697L68.248 122.429V102.215L118.22 72.4563V92.6697Z" fill="#7CBC9E"/>
<path d="M68.2351 14.0149L18.2627 43.7739V63.9873L68.2351 34.2283V14.0149Z" fill="#46586C"/>
<path d="M118.207 43.7739L68.2349 14.0149V34.2283L118.207 63.9873V43.7739Z" fill="#A3B2BE"/>
<path d="M68.2478 93.7919L18.2754 64.033V43.8196L68.2478 73.5785V93.7919Z" fill="#0F1E2E"/>
<path d="M118.22 64.033L68.248 93.7919V73.5785L118.22 43.8196V64.033Z" fill="#7CBC9E"/>
</g>
<path d="M179.727 32.9394H187.888V52.197C187.888 54.4867 187.34 56.4683 186.244 58.1416C185.158 59.8051 183.641 61.0919 181.694 62.0019C179.747 62.9021 177.486 63.3523 174.913 63.3523C172.32 63.3523 170.05 62.9021 168.102 62.0019C166.155 61.0919 164.638 59.8051 163.552 58.1416C162.476 56.4683 161.937 54.4867 161.937 52.197V32.9394H170.098V51.4924C170.098 52.422 170.304 53.2538 170.715 53.9877C171.126 54.7118 171.693 55.2794 172.418 55.6903C173.152 56.1013 173.983 56.3068 174.913 56.3068C175.852 56.3068 176.684 56.1013 177.408 55.6903C178.132 55.2794 178.7 54.7118 179.111 53.9877C179.522 53.2538 179.727 52.422 179.727 51.4924V32.9394ZM190.945 39.5152V32.9394H217.072V39.5152H208.03V63H199.987V39.5152H190.945ZM228.304 32.9394V63H220.143V32.9394H228.304Z" fill="#7CBC9E"/>
<path d="M266.08 40.4545C265.903 38.9672 265.189 37.8125 263.937 36.9905C262.684 36.1686 261.148 35.7576 259.328 35.7576C257.997 35.7576 256.832 35.9729 255.834 36.4034C254.846 36.834 254.073 37.426 253.515 38.1795C252.967 38.9329 252.693 39.7891 252.693 40.7481C252.693 41.5505 252.884 42.2404 253.266 42.8177C253.657 43.3853 254.156 43.8598 254.763 44.2415C255.369 44.6133 256.006 44.9216 256.671 45.1662C257.336 45.401 257.948 45.5919 258.506 45.7386L261.559 46.5606C262.342 46.7661 263.212 47.0499 264.171 47.4119C265.14 47.774 266.065 48.2681 266.946 48.8944C267.836 49.5109 268.57 50.3035 269.147 51.2723C269.725 52.241 270.013 53.4299 270.013 54.839C270.013 56.4634 269.588 57.9312 268.736 59.2424C267.895 60.5537 266.662 61.5958 265.037 62.3688C263.423 63.1419 261.461 63.5284 259.152 63.5284C256.999 63.5284 255.135 63.181 253.559 62.4863C251.994 61.7915 250.761 60.8228 249.86 59.58C248.97 58.3373 248.466 56.8939 248.348 55.25H252.106C252.204 56.3851 252.586 57.3245 253.251 58.0682C253.926 58.8021 254.777 59.3501 255.805 59.7121C256.842 60.0644 257.958 60.2405 259.152 60.2405C260.541 60.2405 261.789 60.0155 262.894 59.5653C264 59.1054 264.876 58.4694 265.522 57.6572C266.168 56.8352 266.491 55.8763 266.491 54.7803C266.491 53.7822 266.212 52.97 265.654 52.3438C265.096 51.7175 264.362 51.2086 263.452 50.8172C262.542 50.4258 261.559 50.0833 260.502 49.7898L256.803 48.733C254.455 48.0578 252.595 47.0939 251.225 45.8414C249.855 44.5889 249.17 42.9498 249.17 40.9242C249.17 39.2412 249.625 37.7734 250.536 36.5208C251.455 35.2585 252.688 34.28 254.234 33.5852C255.79 32.8807 257.527 32.5284 259.445 32.5284C261.383 32.5284 263.105 32.8758 264.612 33.5705C266.119 34.2555 267.313 35.1949 268.193 36.3887C269.084 37.5825 269.553 38.9378 269.602 40.4545H266.08ZM285.333 40.4545V43.3902H273.65V40.4545H285.333ZM277.055 35.053H280.519V56.5417C280.519 57.5202 280.661 58.2541 280.945 58.7434C281.238 59.2229 281.61 59.5458 282.06 59.7121C282.52 59.8687 283.005 59.947 283.513 59.947C283.895 59.947 284.208 59.9274 284.453 59.8883C284.697 59.8393 284.893 59.8002 285.04 59.7708L285.744 62.8826C285.51 62.9706 285.182 63.0587 284.761 63.1468C284.34 63.2446 283.807 63.2936 283.161 63.2936C282.183 63.2936 281.224 63.0832 280.284 62.6624C279.355 62.2416 278.582 61.6007 277.965 60.7396C277.358 59.8785 277.055 58.7923 277.055 57.4811V35.053ZM299.461 63.4697C297.426 63.4697 295.64 62.9853 294.104 62.0166C292.577 61.0478 291.383 59.6926 290.522 57.9508C289.671 56.209 289.245 54.1736 289.245 51.8447C289.245 49.4962 289.671 47.4462 290.522 45.6946C291.383 43.943 292.577 42.5829 294.104 41.6141C295.64 40.6454 297.426 40.161 299.461 40.161C301.496 40.161 303.277 40.6454 304.804 41.6141C306.34 42.5829 307.534 43.943 308.385 45.6946C309.246 47.4462 309.677 49.4962 309.677 51.8447C309.677 54.1736 309.246 56.209 308.385 57.9508C307.534 59.6926 306.34 61.0478 304.804 62.0166C303.277 62.9853 301.496 63.4697 299.461 63.4697ZM299.461 60.358C301.007 60.358 302.279 59.9616 303.277 59.169C304.275 58.3764 305.014 57.3343 305.494 56.0426C305.973 54.7509 306.213 53.3516 306.213 51.8447C306.213 50.3378 305.973 48.9336 305.494 47.6321C305.014 46.3307 304.275 45.2787 303.277 44.4763C302.279 43.6739 301.007 43.2727 299.461 43.2727C297.915 43.2727 296.643 43.6739 295.645 44.4763C294.647 45.2787 293.908 46.3307 293.428 47.6321C292.949 48.9336 292.709 50.3378 292.709 51.8447C292.709 53.3516 292.949 54.7509 293.428 56.0426C293.908 57.3343 294.647 58.3764 295.645 59.169C296.643 59.9616 297.915 60.358 299.461 60.358ZM324.124 63.4697C322.01 63.4697 320.19 62.9706 318.664 61.9725C317.137 60.9744 315.963 59.5996 315.141 57.848C314.319 56.0964 313.908 54.0953 313.908 51.8447C313.908 49.5549 314.329 47.5342 315.17 45.7827C316.022 44.0213 317.206 42.6465 318.722 41.6581C320.249 40.66 322.03 40.161 324.065 40.161C325.65 40.161 327.079 40.4545 328.351 41.0417C329.623 41.6288 330.665 42.4508 331.478 43.5076C332.29 44.5644 332.794 45.7973 332.989 47.2064H329.525C329.261 46.179 328.674 45.2689 327.764 44.4763C326.864 43.6739 325.65 43.2727 324.124 43.2727C322.773 43.2727 321.589 43.625 320.572 44.3295C319.564 45.0243 318.776 46.0077 318.209 47.2798C317.651 48.5421 317.372 50.0246 317.372 51.7273C317.372 53.4691 317.646 54.9858 318.194 56.2775C318.752 57.5691 319.534 58.5721 320.542 59.2865C321.56 60.0008 322.754 60.358 324.124 60.358C325.024 60.358 325.841 60.2014 326.575 59.8883C327.309 59.5751 327.93 59.125 328.439 58.5379C328.948 57.9508 329.31 57.2462 329.525 56.4242H332.989C332.794 57.7551 332.309 58.9538 331.536 60.0204C330.773 61.0772 329.76 61.9187 328.498 62.545C327.245 63.1615 325.787 63.4697 324.124 63.4697ZM341.282 54.7803L341.224 50.4943H341.928L351.792 40.4545H356.078L345.568 51.0814H345.275L341.282 54.7803ZM338.053 63V32.9394H341.517V63H338.053ZM352.379 63L343.572 51.8447L346.038 49.4375L356.782 63H352.379Z" fill="#46586C"/>
<path d="M162.348 109V89.6061H168.902C170.423 89.6061 171.667 89.8807 172.633 90.4299C173.605 90.9729 174.324 91.7083 174.792 92.6364C175.259 93.5644 175.492 94.5997 175.492 95.7424C175.492 96.8851 175.259 97.9236 174.792 98.858C174.331 99.7923 173.617 100.537 172.652 101.093C171.686 101.642 170.448 101.917 168.939 101.917H164.242V99.8333H168.864C169.905 99.8333 170.742 99.6534 171.373 99.2936C172.004 98.9337 172.462 98.4476 172.746 97.8352C173.037 97.2165 173.182 96.5189 173.182 95.7424C173.182 94.9659 173.037 94.2715 172.746 93.6591C172.462 93.0467 172.001 92.5669 171.364 92.2197C170.726 91.8662 169.88 91.6894 168.826 91.6894H164.697V109H162.348ZM178.973 109V94.4545H181.132V96.6515H181.283C181.548 95.9318 182.028 95.3479 182.723 94.8996C183.417 94.4514 184.2 94.2273 185.071 94.2273C185.235 94.2273 185.44 94.2304 185.687 94.2367C185.933 94.2431 186.119 94.2525 186.245 94.2652V96.5379C186.17 96.5189 185.996 96.4905 185.724 96.4527C185.459 96.4085 185.178 96.3864 184.882 96.3864C184.175 96.3864 183.543 96.5347 182.988 96.8314C182.438 97.1218 182.003 97.5259 181.681 98.0436C181.365 98.5549 181.207 99.1389 181.207 99.7955V109H178.973ZM188.894 109V94.4545H191.129V109H188.894ZM190.031 92.0303C189.595 92.0303 189.22 91.8819 188.904 91.5852C188.595 91.2885 188.44 90.9318 188.44 90.5152C188.44 90.0985 188.595 89.7418 188.904 89.4451C189.22 89.1484 189.595 89 190.031 89C190.466 89 190.839 89.1484 191.148 89.4451C191.464 89.7418 191.622 90.0985 191.622 90.5152C191.622 90.9318 191.464 91.2885 191.148 91.5852C190.839 91.8819 190.466 92.0303 190.031 92.0303ZM195.223 109V94.4545H197.382V96.7273H197.571C197.874 95.9508 198.363 95.3479 199.039 94.9186C199.714 94.483 200.526 94.2652 201.473 94.2652C202.432 94.2652 203.231 94.483 203.868 94.9186C204.512 95.3479 205.014 95.9508 205.374 96.7273H205.526C205.898 95.976 206.457 95.3794 207.202 94.9375C207.947 94.4893 208.84 94.2652 209.882 94.2652C211.182 94.2652 212.246 94.6723 213.073 95.4867C213.9 96.2948 214.313 97.5543 214.313 99.2652V109H212.079V99.2652C212.079 98.1919 211.785 97.4249 211.198 96.964C210.611 96.5032 209.92 96.2727 209.124 96.2727C208.101 96.2727 207.309 96.5821 206.747 97.2008C206.185 97.8131 205.904 98.5896 205.904 99.5303V109H203.632V99.0379C203.632 98.2109 203.363 97.5448 202.827 97.0398C202.29 96.5284 201.599 96.2727 200.753 96.2727C200.172 96.2727 199.629 96.4274 199.124 96.7367C198.625 97.0461 198.221 97.4754 197.912 98.0246C197.609 98.5676 197.457 99.1957 197.457 99.9091V109H195.223ZM224.498 109.303C223.097 109.303 221.888 108.994 220.871 108.375C219.861 107.75 219.081 106.879 218.532 105.761C217.989 104.638 217.718 103.331 217.718 101.841C217.718 100.351 217.989 99.0379 218.532 97.9015C219.081 96.7588 219.845 95.8687 220.824 95.2311C221.809 94.5871 222.958 94.2652 224.271 94.2652C225.028 94.2652 225.777 94.3914 226.515 94.6439C227.254 94.8965 227.926 95.3068 228.532 95.875C229.138 96.4369 229.621 97.1818 229.981 98.1098C230.341 99.0379 230.521 100.181 230.521 101.538V102.485H219.309V100.553H228.248C228.248 99.7323 228.084 99 227.756 98.3561C227.434 97.7121 226.973 97.2039 226.373 96.8314C225.78 96.459 225.079 96.2727 224.271 96.2727C223.381 96.2727 222.61 96.4937 221.96 96.9356C221.316 97.3712 220.821 97.9394 220.473 98.6402C220.126 99.3409 219.953 100.092 219.953 100.894V102.182C219.953 103.28 220.142 104.211 220.521 104.975C220.906 105.733 221.439 106.311 222.121 106.708C222.803 107.1 223.595 107.295 224.498 107.295C225.085 107.295 225.616 107.213 226.089 107.049C226.569 106.879 226.982 106.626 227.33 106.292C227.677 105.951 227.945 105.528 228.134 105.023L230.294 105.629C230.066 106.361 229.684 107.005 229.148 107.561C228.611 108.11 227.948 108.539 227.159 108.848C226.37 109.152 225.483 109.303 224.498 109.303Z" fill="#0F1E2E"/>
<defs>
<clipPath id="clip0_1233_2795">
<rect width="136" height="136" fill="white"/>
</clipPath>
</defs>
</svg>
