<svg width="237" height="237" viewBox="0 0 237 237" fill="none" xmlns="http://www.w3.org/2000/svg">
<rect width="237" height="237" rx="118.5" fill="white"/>
<path d="M118.674 121.113L83.6812 100.275V86.1205L118.674 106.959V121.113Z" fill="#0F1E2E"/>
<path d="M153.666 100.275L118.674 121.113V106.959L153.666 86.1205V100.275Z" fill="#7CBC9E"/>
<path d="M118.664 45.1978L83.6719 66.0361V80.1903L118.664 59.3519V45.1978Z" fill="#46586C"/>
<path d="M153.657 66.0361L118.664 45.1978V59.3519L153.657 80.1903V66.0361Z" fill="#A3B2BE"/>
<path d="M118.674 101.06L83.6812 80.2221V66.0679L118.674 86.9063V101.06Z" fill="#0F1E2E"/>
<path d="M153.666 80.2221L118.674 101.06V86.9063L153.666 66.0679V80.2221Z" fill="#7CBC9E"/>
<path d="M61.2138 141.567H66.9284V155.052C66.9284 156.655 66.5447 158.042 65.7773 159.214C65.0167 160.379 63.9546 161.28 62.5911 161.917C61.2275 162.548 59.6447 162.863 57.8426 162.863C56.0268 162.863 54.4371 162.548 53.0735 161.917C51.71 161.28 50.6479 160.379 49.8873 159.214C49.1336 158.042 48.7567 156.655 48.7567 155.052V141.567H54.4714V154.558C54.4714 155.209 54.6152 155.792 54.903 156.305C55.1908 156.813 55.5882 157.21 56.0953 157.498C56.6092 157.786 57.1916 157.929 57.8426 157.929C58.5004 157.929 59.0828 157.786 59.5898 157.498C60.0969 157.21 60.4943 156.813 60.7821 156.305C61.0699 155.792 61.2138 155.209 61.2138 154.558V141.567ZM69.0688 146.171V141.567H87.3638V146.171H81.0325V162.616H75.4001V146.171H69.0688ZM95.2292 141.567V162.616H89.5145V141.567H95.2292Z" fill="#7CBC9E"/>
<path d="M121.964 146.829C121.841 145.788 121.34 144.979 120.463 144.403C119.586 143.828 118.511 143.54 117.236 143.54C116.304 143.54 115.489 143.691 114.79 143.992C114.098 144.294 113.557 144.708 113.166 145.236C112.782 145.764 112.59 146.363 112.59 147.035C112.59 147.596 112.724 148.08 112.991 148.484C113.265 148.881 113.615 149.214 114.04 149.481C114.464 149.741 114.91 149.957 115.376 150.128C115.842 150.293 116.27 150.426 116.661 150.529L118.798 151.105C119.347 151.249 119.956 151.447 120.628 151.701C121.306 151.954 121.954 152.3 122.57 152.739C123.194 153.171 123.708 153.726 124.112 154.404C124.516 155.082 124.719 155.915 124.719 156.902C124.719 158.039 124.42 159.067 123.824 159.985C123.235 160.903 122.372 161.633 121.234 162.174C120.104 162.716 118.73 162.986 117.113 162.986C115.605 162.986 114.3 162.743 113.197 162.256C112.1 161.77 111.237 161.092 110.607 160.221C109.983 159.351 109.63 158.341 109.548 157.189H112.179C112.248 157.984 112.515 158.642 112.981 159.163C113.454 159.677 114.05 160.06 114.769 160.314C115.496 160.561 116.277 160.684 117.113 160.684C118.086 160.684 118.959 160.526 119.734 160.211C120.508 159.889 121.121 159.444 121.573 158.875C122.026 158.299 122.252 157.628 122.252 156.86C122.252 156.162 122.057 155.593 121.666 155.154C121.275 154.716 120.761 154.359 120.124 154.085C119.487 153.811 118.798 153.571 118.058 153.366L115.468 152.626C113.824 152.153 112.522 151.478 111.563 150.601C110.603 149.724 110.124 148.576 110.124 147.158C110.124 145.979 110.442 144.952 111.079 144.075C111.724 143.191 112.587 142.505 113.67 142.019C114.759 141.526 115.975 141.279 117.318 141.279C118.675 141.279 119.881 141.522 120.936 142.009C121.991 142.488 122.827 143.146 123.444 143.982C124.068 144.818 124.396 145.767 124.431 146.829H121.964ZM135.446 146.829V148.885H127.265V146.829H135.446ZM129.649 143.047H132.075V158.094C132.075 158.779 132.174 159.293 132.373 159.636C132.579 159.971 132.839 160.197 133.154 160.314C133.476 160.424 133.816 160.478 134.172 160.478C134.439 160.478 134.658 160.465 134.83 160.437C135.001 160.403 135.138 160.376 135.241 160.355L135.734 162.534C135.57 162.596 135.34 162.657 135.045 162.719C134.751 162.788 134.377 162.822 133.925 162.822C133.24 162.822 132.568 162.674 131.911 162.38C131.26 162.085 130.718 161.636 130.287 161.033C129.862 160.43 129.649 159.67 129.649 158.752V143.047ZM145.339 162.945C143.914 162.945 142.663 162.606 141.587 161.928C140.519 161.249 139.683 160.3 139.08 159.081C138.483 157.861 138.185 156.436 138.185 154.805C138.185 153.16 138.483 151.725 139.08 150.498C139.683 149.272 140.519 148.319 141.587 147.641C142.663 146.963 143.914 146.623 145.339 146.623C146.764 146.623 148.011 146.963 149.08 147.641C150.156 148.319 150.992 149.272 151.588 150.498C152.191 151.725 152.493 153.16 152.493 154.805C152.493 156.436 152.191 157.861 151.588 159.081C150.992 160.3 150.156 161.249 149.08 161.928C148.011 162.606 146.764 162.945 145.339 162.945ZM145.339 160.766C146.422 160.766 147.312 160.489 148.011 159.934C148.71 159.379 149.228 158.649 149.563 157.744C149.899 156.84 150.067 155.86 150.067 154.805C150.067 153.75 149.899 152.766 149.563 151.855C149.228 150.944 148.71 150.207 148.011 149.645C147.312 149.083 146.422 148.802 145.339 148.802C144.256 148.802 143.366 149.083 142.667 149.645C141.968 150.207 141.45 150.944 141.115 151.855C140.779 152.766 140.611 153.75 140.611 154.805C140.611 155.86 140.779 156.84 141.115 157.744C141.45 158.649 141.968 159.379 142.667 159.934C143.366 160.489 144.256 160.766 145.339 160.766ZM162.609 162.945C161.129 162.945 159.854 162.596 158.785 161.897C157.716 161.198 156.894 160.235 156.319 159.009C155.743 157.782 155.455 156.381 155.455 154.805C155.455 153.201 155.75 151.787 156.339 150.56C156.935 149.327 157.764 148.364 158.826 147.672C159.895 146.973 161.142 146.623 162.568 146.623C163.678 146.623 164.678 146.829 165.569 147.24C166.46 147.651 167.189 148.227 167.758 148.967C168.327 149.707 168.68 150.57 168.817 151.557H166.391C166.206 150.838 165.795 150.2 165.158 149.645C164.527 149.083 163.678 148.802 162.609 148.802C161.663 148.802 160.834 149.049 160.121 149.542C159.416 150.029 158.864 150.718 158.467 151.608C158.076 152.492 157.881 153.53 157.881 154.723C157.881 155.942 158.073 157.004 158.456 157.909C158.847 158.813 159.395 159.516 160.101 160.016C160.813 160.516 161.649 160.766 162.609 160.766C163.239 160.766 163.811 160.657 164.325 160.437C164.839 160.218 165.274 159.903 165.63 159.492C165.987 159.081 166.24 158.587 166.391 158.012H168.817C168.68 158.944 168.34 159.783 167.799 160.53C167.265 161.27 166.556 161.859 165.672 162.298C164.795 162.729 163.774 162.945 162.609 162.945ZM174.624 156.86L174.583 153.859H175.076L181.983 146.829H184.984L177.625 154.27H177.419L174.624 156.86ZM172.363 162.616V141.567H174.788V162.616H172.363ZM182.394 162.616L176.227 154.805L177.954 153.119L185.478 162.616H182.394Z" fill="#46586C"/>
<path d="M94.9798 194.616V181.036H99.5684C100.634 181.036 101.505 181.228 102.181 181.613C102.862 181.993 103.366 182.508 103.693 183.158C104.02 183.808 104.184 184.533 104.184 185.333C104.184 186.133 104.02 186.86 103.693 187.514C103.37 188.169 102.871 188.69 102.194 189.079C101.518 189.464 100.651 189.656 99.595 189.656H96.306V188.197H99.5419C100.271 188.197 100.857 188.071 101.299 187.819C101.741 187.567 102.062 187.227 102.261 186.798C102.464 186.365 102.566 185.877 102.566 185.333C102.566 184.789 102.464 184.303 102.261 183.874C102.062 183.445 101.739 183.109 101.292 182.866C100.846 182.618 100.254 182.495 99.5154 182.495H96.6243V194.616H94.9798ZM106.621 194.616V184.431H108.132V185.969H108.238C108.424 185.465 108.76 185.056 109.246 184.743C109.733 184.429 110.281 184.272 110.891 184.272C111.006 184.272 111.15 184.274 111.322 184.278C111.494 184.283 111.625 184.289 111.713 184.298V185.89C111.66 185.877 111.539 185.857 111.348 185.83C111.163 185.799 110.966 185.784 110.758 185.784C110.263 185.784 109.821 185.888 109.432 186.095C109.047 186.299 108.742 186.582 108.517 186.944C108.296 187.302 108.185 187.711 108.185 188.171V194.616H106.621ZM113.568 194.616V184.431H115.133V194.616H113.568ZM114.364 182.733C114.059 182.733 113.796 182.63 113.575 182.422C113.358 182.214 113.25 181.964 113.25 181.672C113.25 181.381 113.358 181.131 113.575 180.923C113.796 180.715 114.059 180.611 114.364 180.611C114.669 180.611 114.93 180.715 115.146 180.923C115.367 181.131 115.478 181.381 115.478 181.672C115.478 181.964 115.367 182.214 115.146 182.422C114.93 182.63 114.669 182.733 114.364 182.733ZM117.999 194.616V184.431H119.511V186.022H119.644C119.856 185.479 120.199 185.056 120.672 184.756C121.145 184.451 121.713 184.298 122.376 184.298C123.048 184.298 123.607 184.451 124.054 184.756C124.504 185.056 124.856 185.479 125.108 186.022H125.214C125.475 185.496 125.866 185.079 126.388 184.769C126.909 184.455 127.535 184.298 128.264 184.298C129.175 184.298 129.92 184.583 130.499 185.154C131.078 185.72 131.368 186.602 131.368 187.8V194.616H129.803V187.8C129.803 187.048 129.597 186.511 129.186 186.188C128.775 185.865 128.291 185.704 127.734 185.704C127.018 185.704 126.463 185.921 126.069 186.354C125.676 186.783 125.479 187.326 125.479 187.985V194.616H123.888V187.64C123.888 187.061 123.7 186.595 123.324 186.241C122.948 185.883 122.464 185.704 121.872 185.704C121.465 185.704 121.085 185.812 120.731 186.029C120.382 186.246 120.099 186.546 119.883 186.931C119.67 187.311 119.564 187.751 119.564 188.25V194.616H117.999ZM138.499 194.828C137.518 194.828 136.671 194.612 135.96 194.179C135.252 193.741 134.706 193.131 134.322 192.348C133.941 191.562 133.751 190.646 133.751 189.603C133.751 188.56 133.941 187.64 134.322 186.845C134.706 186.044 135.241 185.421 135.926 184.975C136.616 184.524 137.421 184.298 138.34 184.298C138.871 184.298 139.394 184.387 139.912 184.564C140.429 184.74 140.9 185.028 141.324 185.426C141.748 185.819 142.087 186.341 142.339 186.991C142.591 187.64 142.717 188.441 142.717 189.391V190.054H134.865V188.701H141.125C141.125 188.127 141.01 187.614 140.78 187.163C140.555 186.712 140.232 186.356 139.812 186.095C139.397 185.835 138.906 185.704 138.34 185.704C137.717 185.704 137.177 185.859 136.722 186.168C136.271 186.473 135.924 186.871 135.681 187.362C135.438 187.853 135.316 188.379 135.316 188.94V189.842C135.316 190.611 135.449 191.263 135.714 191.798C135.984 192.329 136.357 192.733 136.835 193.012C137.312 193.286 137.867 193.423 138.499 193.423C138.91 193.423 139.282 193.365 139.613 193.25C139.949 193.131 140.239 192.954 140.482 192.72C140.725 192.481 140.913 192.185 141.046 191.831L142.557 192.256C142.398 192.768 142.131 193.219 141.755 193.608C141.379 193.993 140.915 194.294 140.363 194.51C139.81 194.722 139.189 194.828 138.499 194.828Z" fill="#0F1E2E"/>
</svg>
